<svg xmlns="http://www.w3.org/2000/svg" xmlns:xlink="http://www.w3.org/1999/xlink" width="48" zoomAndPan="magnify" viewBox="0 0 36 36.000001" height="48" preserveAspectRatio="xMidYMid meet" version="1.0"><defs><clipPath id="21715258cd"><path d="M 0.488281 0 L 35.511719 0 L 35.511719 35.027344 L 0.488281 35.027344 Z M 0.488281 0 " clip-rule="nonzero"/></clipPath><clipPath id="e596397b98"><path d="M 7.382812 6.894531 L 28.617188 6.894531 L 28.617188 28.132812 L 7.382812 28.132812 Z M 7.382812 6.894531 " clip-rule="nonzero"/></clipPath><clipPath id="5a62ceee6d"><path d="M 24.128906 8.660156 L 22.246094 13.265625 L 26.855469 11.34375 L 28.617188 15.589844 L 24.011719 17.511719 L 28.617188 19.4375 L 26.855469 23.683594 L 22.246094 21.761719 L 24.128906 26.367188 L 19.882812 28.132812 L 18 23.523438 L 16.078125 28.132812 L 11.828125 26.367188 L 13.753906 21.761719 L 9.144531 23.683594 L 7.382812 19.4375 L 11.988281 17.511719 L 7.382812 15.589844 L 9.144531 11.34375 L 13.753906 13.265625 L 11.828125 8.660156 L 16.078125 6.894531 L 18 11.503906 L 19.882812 6.894531 Z M 24.128906 8.660156 " clip-rule="nonzero"/></clipPath><clipPath id="358c53213c"><path d="M 0.382812 0.894531 L 21.617188 0.894531 L 21.617188 22.132812 L 0.382812 22.132812 Z M 0.382812 0.894531 " clip-rule="nonzero"/></clipPath><clipPath id="d23483f45d"><path d="M 17.128906 2.660156 L 15.246094 7.265625 L 19.855469 5.34375 L 21.617188 9.589844 L 17.011719 11.511719 L 21.617188 13.4375 L 19.855469 17.683594 L 15.246094 15.761719 L 17.128906 20.367188 L 12.882812 22.132812 L 11 17.523438 L 9.078125 22.132812 L 4.828125 20.367188 L 6.753906 15.761719 L 2.144531 17.683594 L 0.382812 13.4375 L 4.988281 11.511719 L 0.382812 9.589844 L 2.144531 5.34375 L 6.753906 7.265625 L 4.828125 2.660156 L 9.078125 0.894531 L 11 5.503906 L 12.882812 0.894531 Z M 17.128906 2.660156 " clip-rule="nonzero"/></clipPath><clipPath id="754d724300"><rect x="0" width="22" y="0" height="23"/></clipPath></defs><g clip-path="url(#21715258cd)"><path fill="#ffffff" d="M 0.488281 0 L 35.511719 0 L 35.511719 35.027344 L 0.488281 35.027344 Z M 0.488281 0 " fill-opacity="1" fill-rule="nonzero"/><path fill="#1c1c1c" d="M 0.488281 0 L 35.511719 0 L 35.511719 35.027344 L 0.488281 35.027344 Z M 0.488281 0 " fill-opacity="1" fill-rule="nonzero"/></g><g clip-path="url(#e596397b98)"><g clip-path="url(#5a62ceee6d)"><g transform="matrix(1, 0, 0, 1, 7, 6)"><g clip-path="url(#754d724300)"><g clip-path="url(#358c53213c)"><g clip-path="url(#d23483f45d)"><path fill="#c7ff34" d="M 0.382812 0.894531 L 21.617188 0.894531 L 21.617188 22.132812 L 0.382812 22.132812 Z M 0.382812 0.894531 " fill-opacity="1" fill-rule="nonzero"/></g></g></g></g></g></g></svg>