<svg xmlns="http://www.w3.org/2000/svg" xmlns:xlink="http://www.w3.org/1999/xlink" width="1080" zoomAndPan="magnify" viewBox="0 0 810 809.999993" height="1080" preserveAspectRatio="xMidYMid meet" version="1.0"><defs><clipPath id="39a098a545"><path d="M 160.824219 160.824219 L 649.175781 160.824219 L 649.175781 649.175781 L 160.824219 649.175781 Z M 160.824219 160.824219 " clip-rule="nonzero"/></clipPath><clipPath id="473f9a4b8b"><path d="M 545.976562 201.367188 L 502.671875 307.328125 L 608.632812 263.101562 L 649.175781 360.773438 L 543.214844 405 L 649.175781 449.226562 L 608.632812 546.898438 L 502.671875 502.671875 L 545.976562 608.632812 L 448.308594 649.175781 L 405 543.214844 L 360.773438 649.175781 L 263.101562 608.632812 L 307.328125 502.671875 L 201.367188 546.898438 L 160.824219 449.226562 L 266.785156 405 L 160.824219 360.773438 L 201.367188 263.101562 L 307.328125 307.328125 L 263.101562 201.367188 L 360.773438 160.824219 L 405 266.785156 L 448.308594 160.824219 Z M 545.976562 201.367188 " clip-rule="nonzero"/></clipPath><clipPath id="bffbfad5b3"><path d="M 0.824219 0.824219 L 489.175781 0.824219 L 489.175781 489.175781 L 0.824219 489.175781 Z M 0.824219 0.824219 " clip-rule="nonzero"/></clipPath><clipPath id="c010025e8b"><path d="M 385.976562 41.367188 L 342.671875 147.328125 L 448.632812 103.101562 L 489.175781 200.773438 L 383.214844 245 L 489.175781 289.226562 L 448.632812 386.898438 L 342.671875 342.671875 L 385.976562 448.632812 L 288.308594 489.175781 L 245 383.214844 L 200.773438 489.175781 L 103.101562 448.632812 L 147.328125 342.671875 L 41.367188 386.898438 L 0.824219 289.226562 L 106.785156 245 L 0.824219 200.773438 L 41.367188 103.101562 L 147.328125 147.328125 L 103.101562 41.367188 L 200.773438 0.824219 L 245 106.785156 L 288.308594 0.824219 Z M 385.976562 41.367188 " clip-rule="nonzero"/></clipPath><clipPath id="a9bedfa9e7"><rect x="0" width="490" y="0" height="490"/></clipPath></defs><rect x="-81" width="972" fill="#ffffff" y="-80.999999" height="971.999992" fill-opacity="1"/><rect x="-81" width="972" fill="#1c1c1c" y="-80.999999" height="971.999992" fill-opacity="1"/><g clip-path="url(#39a098a545)"><g clip-path="url(#473f9a4b8b)"><g transform="matrix(1, 0, 0, 1, 160, 160)"><g clip-path="url(#a9bedfa9e7)"><g clip-path="url(#bffbfad5b3)"><g clip-path="url(#c010025e8b)"><path fill="#c7ff34" d="M 0.824219 0.824219 L 489.175781 0.824219 L 489.175781 489.175781 L 0.824219 489.175781 Z M 0.824219 0.824219 " fill-opacity="1" fill-rule="nonzero"/></g></g></g></g></g></g></svg>